<svg id="ic_btn_location" xmlns="http://www.w3.org/2000/svg" xmlns:xlink="http://www.w3.org/1999/xlink" width="18" height="17.851" viewBox="0 0 18 17.851">
  <defs>
    <clipPath id="clip-path">
      <rect id="사각형_2581" data-name="사각형 2581" width="14" height="17.851" fill="#020a13"/>
    </clipPath>
  </defs>
  <rect id="사각형_2510" data-name="사각형 2510" width="18" height="17.492" fill="none"/>
  <g id="그룹_158" data-name="그룹 158" transform="translate(2 0)">
    <g id="그룹_157" data-name="그룹 157" clip-path="url(#clip-path)">
      <path id="패스_367" data-name="패스 367" d="M6.9,0A7.1,7.1,0,0,0,0,6.945,6.979,6.979,0,0,0,2.99,12.73a9.351,9.351,0,0,1,2.763,2.961L7,17.851l1.279-2.215a9.582,9.582,0,0,1,2.79-2.948A6.995,6.995,0,0,0,6.9,0M6.875,9.963a3,3,0,1,1,3-3,3,3,0,0,1-3,3" transform="translate(0 0)" fill="#020a13"/>
    </g>
  </g>
</svg>
