<svg xmlns="http://www.w3.org/2000/svg" xmlns:xlink="http://www.w3.org/1999/xlink" width="36" height="36" viewBox="0 0 36 36">
  <defs>
    <clipPath id="clip-path">
      <rect id="사각형_2589" data-name="사각형 2589" width="23.735" height="19.63" fill="none"/>
    </clipPath>
  </defs>
  <g id="ic_sns2" transform="translate(-1622 -9725)">
    <rect id="사각형_2539" data-name="사각형 2539" width="36" height="36" rx="18" transform="translate(1622 9725)" fill="#ced4da"/>
    <g id="그룹_181" data-name="그룹 181" transform="translate(1.983 1.983)">
      <rect id="사각형_2588" data-name="사각형 2588" width="24" height="24" transform="translate(1626.017 9730.017)" fill="none"/>
      <g id="그룹_180" data-name="그룹 180" transform="translate(1626.149 9732.201)">
        <g id="그룹_179" data-name="그룹 179" clip-path="url(#clip-path)">
          <path id="패스_372" data-name="패스 372" d="M.006,4.378C0,6.848,0,9.32.006,11.793a4.691,4.691,0,0,0,4.308,4.432c1.893.046,3.786-.007,5.681.026.437.934.907,1.853,1.358,2.782.125.233.215.53.507.6.3-.056.388-.358.513-.59.455-.931.918-1.86,1.37-2.8,1.891-.02,3.784.02,5.678-.02a4.692,4.692,0,0,0,4.3-4.427c.01-1.971,0-3.943.007-5.915a8.349,8.349,0,0,0-.207-2.6A4.7,4.7,0,0,0,19.157,0Q11.868,0,4.576,0A4.7,4.7,0,0,0,.006,4.378" transform="translate(0 0)" fill="#fff"/>
          <path id="패스_373" data-name="패스 373" d="M6.638,3.951a2.087,2.087,0,0,1,1.224.376,2.392,2.392,0,0,1,.864,2c0,1.287,0,2.573,0,3.856q-.707.007-1.41,0c-.022-1.285.026-2.573-.028-3.857a.963.963,0,0,0-.649-.971c-.008-.467,0-.934,0-1.4" transform="translate(1.338 0.797)" fill="#ced4da"/>
          <path id="패스_374" data-name="패스 374" d="M2.369,10.145c.02-2.026-.024-4.054.025-6.079.471.014.94.008,1.408.014-.017.756.008,1.515-.018,2.271a1.873,1.873,0,0,1,2.585.024,2.429,2.429,0,0,1-.1,3.469,1.771,1.771,0,0,1-2.475-.119c0,.108.006.322.008.429-.477,0-.957.01-1.434-.01M4.3,7.2a.957.957,0,0,0-.054,1.71A.929.929,0,1,0,4.3,7.2" transform="translate(0.478 0.82)" fill="#ced4da"/>
          <path id="패스_375" data-name="패스 375" d="M10.759,5.665a2.759,2.759,0,0,1,2.624.54,2.222,2.222,0,0,1-.171,3.281,2.61,2.61,0,0,1-3.891-.878,2.2,2.2,0,0,1,1.437-2.942M11.3,6.882A.957.957,0,0,0,11.149,8.6.928.928,0,1,0,11.3,6.882" transform="translate(1.847 1.119)" fill="#ced4da"/>
          <path id="패스_376" data-name="패스 376" d="M14.736,5.888a1.755,1.755,0,0,1,2.318.2c0-.1,0-.292,0-.391q.71-.005,1.423,0c0,1.339,0,2.679,0,4.017a2.412,2.412,0,0,1-.863,1.943,2.791,2.791,0,0,1-1.843.412c0-.436,0-.874,0-1.31a1.457,1.457,0,0,0,.983-.246,1.6,1.6,0,0,0,.32-1.09,1.945,1.945,0,0,1-2.615.016,2.39,2.39,0,0,1,.282-3.547m1.11.979a.961.961,0,0,0-.109,1.7.931.931,0,1,0,.109-1.7" transform="translate(2.782 1.118)" fill="#ced4da"/>
        </g>
      </g>
    </g>
  </g>
</svg>
