<svg xmlns="http://www.w3.org/2000/svg" xmlns:xlink="http://www.w3.org/1999/xlink" width="36" height="36" viewBox="0 0 36 36">
  <defs>
    <clipPath id="clip-path">
      <rect id="사각형_2590" data-name="사각형 2590" width="24" height="16.909" fill="none"/>
    </clipPath>
  </defs>
  <g id="ic_sns1" transform="translate(-1582 -9725)">
    <path id="패스_379" data-name="패스 379" d="M18,0A18,18,0,1,1,0,18,18,18,0,0,1,18,0Z" transform="translate(1582 9725)" fill="#ced4da"/>
    <g id="그룹_183" data-name="그룹 183" transform="translate(1588 9735)">
      <g id="그룹_182" data-name="그룹 182" clip-path="url(#clip-path)">
        <path id="패스_377" data-name="패스 377" d="M23.5,2.64A3.016,3.016,0,0,0,21.377.5C19.505,0,12,0,12,0S4.5,0,2.623.5A3.016,3.016,0,0,0,.5,2.64,31.634,31.634,0,0,0,0,8.455a31.634,31.634,0,0,0,.5,5.814A3.016,3.016,0,0,0,2.623,16.4c1.872.5,9.377.5,9.377.5s7.505,0,9.377-.5A3.016,3.016,0,0,0,23.5,14.269,31.637,31.637,0,0,0,24,8.455a31.636,31.636,0,0,0-.5-5.814" transform="translate(0 0)" fill="#fff"/>
        <path id="패스_378" data-name="패스 378" d="M225.483,122.556v-7.137l6.273,3.569Z" transform="translate(-215.938 -110.533)" fill="#ced4da"/>
      </g>
    </g>
  </g>
</svg>
