<svg xmlns="http://www.w3.org/2000/svg" xmlns:xlink="http://www.w3.org/1999/xlink" width="160" height="160" viewBox="0 0 160 160">
  <defs>
    <clipPath id="clip-path">
      <rect id="사각형_2595" data-name="사각형 2595" width="152.622" height="147.365" fill="none"/>
    </clipPath>
  </defs>
  <g id="img_value4" transform="translate(-32 -24)">
    <rect id="사각형_2591" data-name="사각형 2591" width="160" height="160" transform="translate(32 24)" fill="none"/>
    <g id="그룹_205" data-name="그룹 205" transform="translate(38.006 30.318)">
      <g id="그룹_204" data-name="그룹 204" clip-path="url(#clip-path)">
        <path id="패스_391" data-name="패스 391" d="M54.466,18.8A18.155,18.155,0,1,1,36.311.649,18.155,18.155,0,0,1,54.466,18.8" fill="#f9bec0"/>
        <path id="패스_392" data-name="패스 392" d="M54.466,55.115A18.155,18.155,0,1,1,36.311,36.96,18.155,18.155,0,0,1,54.466,55.115" fill="#f9bec0"/>
        <path id="패스_393" data-name="패스 393" d="M72.622,36.96A18.156,18.156,0,1,1,54.467,18.805,18.155,18.155,0,0,1,72.622,36.96" fill="#f9bec0"/>
        <path id="패스_394" data-name="패스 394" d="M36.311,36.96A18.156,18.156,0,1,1,18.156,18.805,18.155,18.155,0,0,1,36.311,36.96" fill="#f9bec0"/>
        <path id="패스_395" data-name="패스 395" d="M128.466,92.8a18.156,18.156,0,1,1-18.155-18.155A18.155,18.155,0,0,1,128.466,92.8" transform="translate(117.77 -44.502) rotate(45)" fill="#f3af44"/>
        <path id="패스_396" data-name="패스 396" d="M128.466,129.115a18.156,18.156,0,1,1-18.155-18.155,18.155,18.155,0,0,1,18.155,18.155" transform="translate(117.77 -44.502) rotate(45)" fill="#f3af44"/>
        <path id="패스_397" data-name="패스 397" d="M146.622,110.96a18.155,18.155,0,1,1-18.155-18.155,18.155,18.155,0,0,1,18.155,18.155" transform="translate(117.77 -44.502) rotate(45)" fill="#f3af44"/>
        <path id="패스_398" data-name="패스 398" d="M110.311,110.96A18.155,18.155,0,1,1,92.156,92.805a18.155,18.155,0,0,1,18.155,18.155" transform="translate(117.77 -44.502) rotate(45)" fill="#f3af44"/>
        <path id="패스_399" data-name="패스 399" d="M81.575,53.429a79.545,79.545,0,0,1,0-38.128C83.013,9.957,89.214,3.757,94.558,2.319a79.516,79.516,0,0,1,38.127,0C138.03,3.757,144.23,9.957,145.668,15.3a79.545,79.545,0,0,1,0,38.128c-1.438,5.344-7.638,11.545-12.983,12.983a79.541,79.541,0,0,1-38.127,0c-5.344-1.439-11.545-7.639-12.983-12.983" transform="translate(3)" fill="#56c2b5"/>
        <path id="패스_400" data-name="패스 400" d="M68.622,114.365a33,33,0,1,1-33-33,33,33,0,0,1,33,33" fill="#f04e28"/>
      </g>
    </g>
  </g>
</svg>
