<svg xmlns="http://www.w3.org/2000/svg" xmlns:xlink="http://www.w3.org/1999/xlink" width="150.322" height="45.29" viewBox="0 0 150.322 45.29">
  <defs>
    <clipPath id="clip-path">
      <rect id="사각형_2613" data-name="사각형 2613" width="150.322" height="45.29" fill="none"/>
    </clipPath>
  </defs>
  <g id="logo_gnb" transform="translate(0 0)">
    <g id="그룹_232" data-name="그룹 232" transform="translate(0 0)" clip-path="url(#clip-path)">
      <path id="패스_417" data-name="패스 417" d="M23.8,32.16c.5-.111.523-.5.668-.8a1.648,1.648,0,0,0,.125-1.153,4.356,4.356,0,0,0-2.683-2.972,1.541,1.541,0,0,0-.449-.023c.376,1.525,1.4,2.683,1.819,4.1a3.876,3.876,0,0,0,.519.849M15.636,14.083a2.912,2.912,0,0,0,.312-.336,8.023,8.023,0,0,0,1.387-4.09,6.471,6.471,0,0,0-.2-1.752,1.681,1.681,0,0,0-1.264-1.237c-.553-.135-1.4.7-1.468,1.292a13.187,13.187,0,0,0,.975,5.639,3.845,3.845,0,0,0,.26.484m.78,7.65a1.883,1.883,0,0,0-.251.25,13.994,13.994,0,0,0-1.922,4.326,9.534,9.534,0,0,0,.125,4.757,1.108,1.108,0,0,0,.3.5c.628.592,1.275,1.164,1.917,1.744a4.862,4.862,0,0,0,5.556.047,25.636,25.636,0,0,0-2.921-5.912,1.651,1.651,0,0,0-1.052,2.072,4.166,4.166,0,0,0,1.343,1.923c.176.136.339.288.508.433.239.2.444.463.327.773-.13.344-.473.283-.774.248-.587-.068-1.175-.133-1.841-.207a13.159,13.159,0,0,0-.859-1.279,3.688,3.688,0,0,1-.688-1.462c-.088-.335-.163-.675-.232-1.015a5.5,5.5,0,0,1,.588-3.879c.247-.444.865-.718.769-1.285a7.294,7.294,0,0,0-.572-1.526,3.5,3.5,0,0,0-.326-.509m6.015,21.824,1.021.209a4.262,4.262,0,0,0,.915-4.25c-.3-1.348-.78-2.655-1.189-3.978a2.054,2.054,0,0,0-.242-.393c-.277.081-.552.168-.832.242a7.382,7.382,0,0,1-6.445-.961,10.242,10.242,0,0,1-2.417-2.07,10.092,10.092,0,0,1-1.294-2.487A9.568,9.568,0,0,1,11.684,25c.009.3.021.6.032.956.346-.282.249-.631.252-.916,0-.344-.108-.676.223-.954.084-.071.047-.282.074-.426a2.538,2.538,0,0,1,.124-.578c.1-.214.321-.39.36-.606a1.291,1.291,0,0,0-.178-.623c-.143-.355.129-.591.262-.892l.2.425a10.448,10.448,0,0,0,.712-2.958,2.023,2.023,0,0,0,.867-1.742,10.662,10.662,0,0,0-.756-2.529c-.465-1.668-1.012-3.315-1.49-4.979a6.689,6.689,0,0,1-.1-2.8.93.93,0,0,0,.03-.221c-.129-1.338.683-2,1.759-2.5.4-.187.768-.51,1.243-.343a5.285,5.285,0,0,1,1.61.7A15.2,15.2,0,0,1,18.536,5.83c.063.074.091.185.163.248A3.393,3.393,0,0,1,19.615,8.8a21.875,21.875,0,0,1,.018,2.577,25.765,25.765,0,0,1-.479,3.2,29.06,29.06,0,0,1-1.623,4.612,1.156,1.156,0,0,0-.007,1q.259.533.52,1.067c.218.444.454.88.649,1.333.12.28.3.4.577.309,1.25-.415,2.4.116,3.557.416a3.2,3.2,0,0,1,1.637,1.242,18.371,18.371,0,0,1,1.62,2.3,5.243,5.243,0,0,1,.263,4.382,8.292,8.292,0,0,1-1.333,2.374,1.112,1.112,0,0,0-.155,1.111c.376,1.155.7,2.325,1.107,3.468a8.712,8.712,0,0,1,.558,3.188,4.3,4.3,0,0,1-2.349,3.857,5.776,5.776,0,0,1-4.132.407A3.105,3.105,0,0,1,17.9,42.455c.042-.418.107-.834.123-1.254a2.315,2.315,0,0,1,1.3-2.17,12.535,12.535,0,0,1,1.255-.618.924.924,0,0,1,.705.045,4.219,4.219,0,0,1,1.862,2.05,2.457,2.457,0,0,1-.223,2.209c-.134.233-.27.464-.489.841" transform="translate(-1.946 -0.552)" fill="#006b61"/>
      <path id="패스_418" data-name="패스 418" d="M.162,26.283C.2,26.063.071,25.75.5,25.76c.074,0,.194-.136.223-.229.136-.449.255-.906.361-1.363a.456.456,0,0,0-.051-.338.387.387,0,0,1,.174-.636.658.658,0,0,0,.616-.757,1.538,1.538,0,0,1,.43-1.172,16.313,16.313,0,0,1,2.669-3.037,21.044,21.044,0,0,1,3.768-2.5c.11-.056.225-.1.423-.187.443.939.879,1.863,1.337,2.832-.476.274-.888.492-1.282.741A11.7,11.7,0,0,0,4.54,24.31a14.5,14.5,0,0,0-.952,3.869,16.047,16.047,0,0,0,.244,6.045A11.586,11.586,0,0,0,5.7,38.476a7.424,7.424,0,0,0,2.466,2.1,9.815,9.815,0,0,0,3.373,1.309c.93.121,1.868.176,2.8.263.071.007.139.026.266.05-.114.59-.226,1.166-.334,1.723-.9.43-1.765.042-2.629.012a13.02,13.02,0,0,1-2.332-.284c-.569-.126-1.088-.465-1.652-.637a9.551,9.551,0,0,1-4.6-3.494c-.51-.636-1.024-1.274-1.472-1.953-.247-.375-.3-.872-.546-1.252-.542-.852-.5-1.876-.875-2.774a1.08,1.08,0,0,1-.017-1,.458.458,0,0,0,.071-.346c-.326-.625,0-1.25-.032-1.869-.02-.385-.236-.813-.121-1.138a2.889,2.889,0,0,0-.038-1.4,3.433,3.433,0,0,1,.15-1.526q.046.336.09.673c.136-.255.333-.484.194-.8-.126.065-.213.107-.3.15" transform="translate(0 -2.63)" fill="#f68e06"/>
      <path id="패스_419" data-name="패스 419" d="M23.417,15.2c.68.384,1.242.646,1.74,1,.582.41,1.113.9,1.662,1.355.531.442,1.089.857,1.574,1.343a7.71,7.71,0,0,1,1.7,2.4c.318.744.815,1.408,1.178,2.135a19.491,19.491,0,0,1,2.069,5.537,11.558,11.558,0,0,1,.318,3.68,7.8,7.8,0,0,1-.212,1.235,9.758,9.758,0,0,1-3.2,4.8c-.174.136-.3.332-.46.482-.139.126-.3.223-.553.407a16.35,16.35,0,0,1-.513-1.856c-.034-.2.189-.489.368-.668a8.438,8.438,0,0,0,1.638-2.367,9.5,9.5,0,0,0,.643-2.654,6.192,6.192,0,0,0-.225-2.934A11.921,11.921,0,0,0,29.5,25.3c-.451-.588-.935-1.152-1.389-1.737a16.158,16.158,0,0,1-1.191-1.608,8.681,8.681,0,0,0-3.811-3.419c-.151-.072-.287-.176-.47-.289.248-.972.49-1.923.774-3.04" transform="translate(-3.831 -2.572)" fill="#f68e06"/>
      <path id="패스_420" data-name="패스 420" d="M30.179,1.058c-.116.425-.216.7-.263.987-.267,1.59-.48,3.189-.793,4.773a17.719,17.719,0,0,1-.772,2.5,2.173,2.173,0,0,1-.553.759,1.146,1.146,0,0,1-1.587.076,1.465,1.465,0,0,1-.725-1.316,2.226,2.226,0,0,1,1.679-2.262.893.893,0,0,0,.7-.811c.289-1.559.591-3.116.876-4.674.189-1.031.98-1.388,2.03-.821a14,14,0,0,1,3.423,2.39.787.787,0,0,1,.145.979,20.609,20.609,0,0,0-.805,2.669c-.307,1.314-.518,2.644-.819,3.96a2.98,2.98,0,0,1-1.306,1.8A.7.7,0,0,1,30.392,12a3.616,3.616,0,0,1-.6-1.119c-.3-.925-.3-1.772,1.088-2.107.16-.038.27-.238.425-.26,1.256-.174,1.2-1.09,1.316-1.783.185-1.08.135-2.191.219-3.286a1.357,1.357,0,0,0-.847-1.426c-.569-.287-1.123-.592-1.814-.96" transform="translate(-4.311 0)" fill="#006b61"/>
      <path id="패스_421" data-name="패스 421" d="M45.4,12.193c-1.237-1.622-.391-3.982-1.855-6-.381,1.221-.67,2.062-.908,2.92-.67,2.427-1.3,4.863-1.981,7.287a6.07,6.07,0,0,1-2.532,3.56c-.983.654-1.687.8-2.491.265a2.284,2.284,0,0,1-1.045-2.369,3.865,3.865,0,0,1,4.456-3.626,1.957,1.957,0,0,0,.454-.11c.519-1.215,1.534-2.2,1.683-3.79a33.775,33.775,0,0,1,1.358-5.4.733.733,0,0,1,.134-.315c.408-.426.458-1.277,1.3-1.191s.925.822,1,1.412c.2,1.527.292,3.069.469,4.6a14.494,14.494,0,0,0,.371,1.441c.086.385.123.783.18,1.174-.2.047-.4.09-.593.134" transform="translate(-5.847 -0.579)" fill="#006b61"/>
      <path id="패스_422" data-name="패스 422" d="M44.743,28.718a1.176,1.176,0,0,0-.349.766,47.9,47.9,0,0,1-3,6.318,3.476,3.476,0,0,0-.616,1.409l.184.186h.206l1.107-.414a26.645,26.645,0,0,1,3.077-5.593q0,.269.8,1.056,1.989,2.9,2.708,3.108.451,0,1.088-1.036v-.145q-1.088-1.636-3.571-4.827,0-.829-1.641-.828" transform="translate(-6.9 -4.859)" fill="#006b61"/>
      <path id="패스_423" data-name="패스 423" d="M55.935,25.127q-.657.166-.656.394v.663l.144.145h-.144a21.674,21.674,0,0,1,.287,4.164q0,.415-3.755.538l-.656.539q0,.808,2.523.808l1.334-.145.123.145a3.672,3.672,0,0,1,.677-.145q.594,2.963,1.067,2.963h.246l1.334-1.346V33.7l-1.334-4.972q0-3.605-1.19-3.6" transform="translate(-8.655 -4.251)" fill="#006b61"/>
      <path id="패스_424" data-name="패스 424" d="M73.893,36.023h.164l-.164-.6V33.951l-.081-.083h.081l-.82-7.085.2-1.8-.2-2.03.081-.621q0-.394-.759-.643-.614,0-.615,3.584l.123.083c-.164,0-.247.331-.247.994l.124.166-.205.476a.52.52,0,0,0,.081.291.888.888,0,0,1-.081.248l.081.621-.081.5.081.145-.245.394.164.5v4.059l.081.891-.081.145.081.642-.081.477q.328,4.184.82,4.184h.247l.431-.145q1.108,0,1.107-1.244-.123-1.657-.123-2.527Z" transform="translate(-12.083 -3.669)" fill="#006b61"/>
      <path id="패스_425" data-name="패스 425" d="M66.093,35.35l-1.723.125q-1.294,0-1.293-1.057a5.621,5.621,0,0,0,.1-.642l-.1-.145.349-.664a7.148,7.148,0,0,0,2.523-2.237l-.267-3.48q0-1.7-3.139-1.7h-.7l-.492.538v.125A1.09,1.09,0,0,0,62.4,26.9q1.7,0,1.7,2.487v.559a1.551,1.551,0,0,1-.512,1.036q-2.627,1.6-2.627,3.583l.144,1.036-.144.415q0,1.016,1.58,1.574a7.135,7.135,0,0,0,2.626-.393q1.169,0,1.416-1.431,0-.227-.493-.414" transform="translate(-10.315 -4.323)" fill="#006b61"/>
      <path id="패스_426" data-name="패스 426" d="M88.714,29.732l-.328.062L88.3,29.67l-.778-.1-.144.084.02-.084-2.811.187v-.145l-1.908.207-.123-.124a43.937,43.937,0,0,0-4.842,1.118q-1.99,0-2.114.994l-.021.083q.1.415.882.808a25.813,25.813,0,0,1,5.191-1.058q.328,2.031.554,2.072L82,34a5.041,5.041,0,0,1,.452,1.8l-1.251.311-.349-.022q-1.027,0-1.108.705l.493.621h.082a17.859,17.859,0,0,1,4.329-.974l.287.021a1.03,1.03,0,0,1,.452.828v.1l-.144.124-.062.56-1.764.662a2.469,2.469,0,0,0-1.97,2.362l.081.083a.928.928,0,0,0-.164.351l.123.1-.143.1-.021.228a2.112,2.112,0,0,0,.246.932H81.8q3.426,0,3.508-.621l.021-.145-.1-.1.246-.207V41.81q0-.166-.493-.373l-1.785.1-.267-.621.43-.808,2.217-.724.123.124h.081l1.252-.745.041-.684-.041-.56.164-.1-.061-.56a4.576,4.576,0,0,0,.308-.683q0-.56-1.231-.911l-1.456.248a21.134,21.134,0,0,1-1.129-3.583,4.368,4.368,0,0,1,.185-.518,6.262,6.262,0,0,0,1.19.124,3.41,3.41,0,0,0,.7-.061.729.729,0,0,1,.225.124q.718.061,1.088.061c.3,0,.451-.027.451-.082l.205.021q.943,0,1.436-1.243l.021-.29q0-.125-.41-.331" transform="translate(-12.788 -5.002)" fill="#006b61"/>
      <path id="패스_427" data-name="패스 427" d="M78.8,20.365a1.306,1.306,0,0,0,1.067,1.346h.1l.062-.083a4.919,4.919,0,0,0,.656.083l.061-.083.656.083v.1q-.41,0-.493.953l.082.124h-.082q0,1.347-.225,1.347l.061.932q0,.208-1.108.208l-.41-.083-.267.87.512.746.719-.166v.083l5.068-.724v.061q1.436-.082,1.436-.559a2.018,2.018,0,0,1-.082-.435l.082-.042-.307-.683c-.643.152-.992.227-1.047.227l-.081-.02c-.205.014-.473.02-.8.02L84.3,22.891a1.892,1.892,0,0,0,.1-.518l-.1-.559,1.21-.1q1.292,0,1.6-.621,0-.579-1.21-.58l-.062.083-.1-.083H84.545l-.595-.1-.041.1q-3.324-.579-3.386-.58l-.081.1c0-.111-.164-.166-.493-.166q-1.355,0-1.354.311c0,.124.068.187.205.187m2.914,1.512v-.062l1.21.062a.2.2,0,0,0,.144-.062l.287.062.04,1.139-.04,1.637.04.02q0,.312-1.436.456Q81.8,23.12,81.8,22.684l-.081-.083.205-.558Z" transform="translate(-13.298 -3.361)" fill="#006b61"/>
      <path id="패스_428" data-name="패스 428" d="M118.267,24.258a.486.486,0,0,0-.279-.16,6.316,6.316,0,0,1-1.176-.289.536.536,0,0,0-.1-.1.493.493,0,0,0-.411-.091l-.485.113-.218-.089a.464.464,0,0,0-.326-.016l-.419.128-2.329.076h-.008l-.079-.9v-.361a.476.476,0,0,0-.014-.117l-.529-2.119a.491.491,0,0,0,.045-.33l-.859-3.9a3.333,3.333,0,0,0-1.737-3.111.493.493,0,0,0-.233-.06h-.106a.479.479,0,0,0-.253.071l-.381.233a.484.484,0,0,0-.228.473l.826,6.731a.49.49,0,0,0-.081.353l.221,1.386-.114.662a.5.5,0,0,0,0,.165l.106.623-.088.266a.482.482,0,0,0,0,.3c.1.317.166.524.2.66a.481.481,0,0,0-.1.293v.127a.475.475,0,0,0,.017.128.466.466,0,0,0-.017.128,3.276,3.276,0,0,0,.221.976.491.491,0,0,0-.054.385l.018.066a.492.492,0,0,0-.033.243c.39,3.233.725,3.78,1.33,3.78h.127a.485.485,0,0,0,.352-.153l.223-.236a1.764,1.764,0,0,0,1.882-1.858.541.541,0,0,0-.012-.113l-.158-.661a.486.486,0,0,0,.03-.317c-.193-.791-.28-1.177-.32-1.361a.485.485,0,0,0,.079-.265.9.9,0,0,0-.007-.106c.158.035.359.064.626.1.574.084,1.443.21,2.77.527a.448.448,0,0,0,.117.014h.361a.489.489,0,0,1,.233,0h.382a.486.486,0,0,0,.347-.146,2.719,2.719,0,0,0,.878-1.663.48.48,0,0,0-.115-.347Z" transform="translate(-18.297 -2.188)" fill="#006b61"/>
      <path id="패스_429" data-name="패스 429" d="M109.325,35.391h-.8a.523.523,0,0,0-.12.014.506.506,0,0,0-.119-.014l-1.585,0a18.336,18.336,0,0,0-3.367.442c-1.759.01-4.069.2-4.069,1.707a.5.5,0,0,0,.04.2,1.8,1.8,0,0,0,1.731,1.165.5.5,0,0,0,.25-.067,5.363,5.363,0,0,1,2.272-.791.5.5,0,0,0,.39.112l1.259-.179a.486.486,0,0,0,.282.059c.547-.05,1.1-.081,1.657-.093-.383,1.111-.573,1.785-.741,2.38-.086.3-.167.595-.268.922a8.625,8.625,0,0,0-.549,2.609c0,.792,1.111.911,1.576.961l.062,0a.5.5,0,0,0,.249-.067l.636-.371a.485.485,0,0,0,.2-.212,23.159,23.159,0,0,0,1.318-3.7,11.5,11.5,0,0,1,1.278-3.259l.229-.327a.5.5,0,0,0-.055-.636,2.523,2.523,0,0,0-1.759-.862" transform="translate(-16.796 -5.988)" fill="#006b61"/>
      <path id="패스_430" data-name="패스 430" d="M100.9,29.278a8.278,8.278,0,0,0,2.968-3.656.492.492,0,0,0,.032-.172v-.934a.464.464,0,0,0-.026-.155c-.426-1.26-1.052-1.9-1.859-1.9h-.128a.478.478,0,0,0-.251.071c-3.489,2.124-5.114,3.745-5.114,5.1a.472.472,0,0,0,.04.191c.535,1.237,1.213,1.863,2.015,1.863l2.11-.324a.474.474,0,0,0,.214-.088m-1.272-1.961a1.453,1.453,0,0,1-.419-.263V26.83a5.137,5.137,0,0,1,1.648-1.515l.05.418c-.279,1.015-.7,1.534-1.279,1.584" transform="translate(-16.33 -3.8)" fill="#006b61"/>
      <path id="패스_431" data-name="패스 431" d="M139.26,25.423h0c-.851-2.212-1.448-2.63-1.871-2.748a.532.532,0,0,0-.148-.019c-.559.016-.928.027-2.085,9.436a.463.463,0,0,0,.039.251l.153.332c-.259,4.062-.255,4.221-.253,4.289a.466.466,0,0,0,.13.311.453.453,0,0,0-.112.33l.135,2.574a2.067,2.067,0,0,0,1.627,2.078l.278.114a.488.488,0,0,0,.194.038h.011a.494.494,0,0,0,.345-.157,6.144,6.144,0,0,1,.545-.524,1.251,1.251,0,0,0,.568-1.186l0-.1.313-.872.011-.049a.462.462,0,0,0-.1-.337L139,39.138l.1-.631a.473.473,0,0,0-.009-.185l-.219-.616a3.6,3.6,0,0,0,.126-.849.467.467,0,0,0-.014-.1.452.452,0,0,0,.006-.145l-.209-1.8.125-1.231a.455.455,0,0,0,0-.1l-.2-1.6.129-.773a.464.464,0,0,0-.1-.371l-.042-.051.592-5.04a.468.468,0,0,0-.027-.219" transform="translate(-22.857 -3.833)" fill="#006b61"/>
      <path id="패스_432" data-name="패스 432" d="M161.808,33.11l-.268-.5.076-.276a.473.473,0,0,0,.016-.177l-.124-1.2,0-1.171.119-.536a.478.478,0,0,0-.094-.4l.1-1.123a.473.473,0,0,0-.028-.216l-.02-.055a.49.49,0,0,0,.052-.217V25.805a1.942,1.942,0,0,0-1.037-1.78.483.483,0,0,0-.243-.066h-.229a.492.492,0,0,0-.257.074l-.567.357a.479.479,0,0,0-.22.473l.116.833c-.226,1.5-.226,1.58-.226,1.639A.48.48,0,0,0,159,27.5a21.01,21.01,0,0,0-.244,3.323l-.029,0c-5.758.418-6.215.955-6.215,1.613v.1a.48.48,0,0,0,.077.263,3.165,3.165,0,0,0,1.726,1.329.444.444,0,0,0,.2.017l2.665-.327.837.116a.451.451,0,0,0,.263-.035l.43.194-.073.788a.481.481,0,0,0,.019.189l.075.237a14.08,14.08,0,0,0-.1,1.655.458.458,0,0,0,.014.115.445.445,0,0,0-.014.115v1.637a.545.545,0,0,0,0,.062.489.489,0,0,0,0,.1c.16,2.154.348,2.712.92,2.712h.462a.482.482,0,0,0,.369-.172l.031-.037a2.761,2.761,0,0,0,1.417-1.706.479.479,0,0,0,0-.328.472.472,0,0,0,.025-.243l-.12-.744V36.734a.436.436,0,0,0-.014-.114.494.494,0,0,0,.014-.115l0-1.078.123-.754a.486.486,0,0,0-.088-.363l-.032-.04a.491.491,0,0,0-.013-.143l-.064-.271.153-.3a.483.483,0,0,0-.006-.441" transform="translate(-25.804 -4.054)" fill="#006b61"/>
      <path id="패스_433" data-name="패스 433" d="M151.585,30.538c0-1.115-1.052-1.818-3.123-2.092a.42.42,0,0,0-.178.01l-.6.146-3.456-.47-.065,0c-.847,0-1.1,1.134-1.184,1.511a.537.537,0,0,0-.01.1c0,.511.554.778,1.578,1.089a.5.5,0,0,0,.14.021h.189a.481.481,0,0,0,.295-.1l.012-.009,2.191.478-.209.486c-2.287,5.1-2.58,6.261-2.58,6.7v.8a.481.481,0,0,0,.117.314l.546.63a.478.478,0,0,0,.714.013,1.239,1.239,0,0,1,.886-.476.482.482,0,0,0,.481-.481c0-1.368,1.407-4.193,4.18-8.4a.475.475,0,0,0,.08-.265" transform="translate(-24.189 -4.759)" fill="#006b61"/>
      <path id="패스_434" data-name="패스 434" d="M171.584,36.719a.443.443,0,0,0-.2-.029l-1.728.124c-.832,0-.837-.341-.844-.526a4.277,4.277,0,0,0,.109-.714.458.458,0,0,0-.031-.167l.166-.312a7.387,7.387,0,0,0,2.643-2.384.488.488,0,0,0,.052-.258l-.271-3.487c0-1.461-1.242-2.2-3.691-2.2h-.714a.482.482,0,0,0-.353.155l-.505.546a.488.488,0,0,0-.125.326v.126a.474.474,0,0,0,.048.209,1.606,1.606,0,0,0,1.5.963c.377,0,1.26,0,1.26,2.038v.566a1.093,1.093,0,0,1-.348.672c-1.9,1.157-2.862,2.506-2.862,4.007l.135,1-.108.31a.473.473,0,0,0-.027.159c0,.908.652,1.6,1.937,2.047a.486.486,0,0,0,.173.027h.012a8.056,8.056,0,0,0,2.8-.4c.572-.037,1.517-.333,1.78-1.841l.007-.084c0-.374-.274-.667-.814-.869" transform="translate(-28.034 -4.528)" fill="#006b61"/>
      <path id="패스_435" data-name="패스 435" d="M180.039,38a.434.434,0,0,0-.006-.073.5.5,0,0,0-.012-.2l-.15-.546V35.752l0-.039a.458.458,0,0,0,0-.1l-.835-7.1.206-1.8a.516.516,0,0,0,0-.1l-.207-1.976.08-.6,0-.063c0-.5-.374-.87-1.109-1.108a.476.476,0,0,0-.149-.023c-.819,0-1.11,1.075-1.11,4.111,0,.017,0,.036,0,.053a2.977,2.977,0,0,0-.128,1.037.467.467,0,0,0,.058.223l-.1.237a.482.482,0,0,0-.039.19,1.046,1.046,0,0,0,.052.33l0,0a.477.477,0,0,0-.046.277l.074.558-.071.431a.491.491,0,0,0,.007.2l-.108.172a.478.478,0,0,0-.05.408l.144.43,0,4.078.069.753-.008.014a.473.473,0,0,0-.059.3l.074.577-.072.415a.51.51,0,0,0,0,.117c.345,4.354.746,4.681,1.318,4.681h.253a.459.459,0,0,0,.151-.026l.371-.122c.974-.034,1.531-.674,1.53-1.775-.083-1.1-.125-1.949-.125-2.523" transform="translate(-29.841 -3.866)" fill="#006b61"/>
      <path id="패스_436" data-name="패스 436" d="M127.089,28.441l-.3,0-.145.157-4.688-.485-.923,1.034.007.8.017.08c.356.806,2.043,1.188,5.272,1.16l0,.145-1.885,9.043,0,.286.346.3h.081a2.036,2.036,0,0,1,.411.086,3.727,3.727,0,0,0,.973.162,1.842,1.842,0,0,0,1.043-.307l1.059-1.919a9.589,9.589,0,0,1,.988-2.292l.052-.057,0-.372-.2-.146,1.356-6.064c-.007-.824-1.1-1.338-3.464-1.618" transform="translate(-20.477 -4.757)" fill="#006b61"/>
    </g>
  </g>
</svg>
